<svg width="89" height="57" viewBox="0 0.47 89 56.76" fill="none" xmlns="http://www.w3.org/2000/svg">
<rect x="12.4887" y="17.5" width="74" height="21" rx="10.5" fill="url(#paint0_linear_283_819)"/>
<g filter="url(#filter0_df_283_819)">
<path d="M31.0549 24C31.1212 24 31.1868 24.0163 31.2465 24.0476C31.3063 24.0789 31.3588 24.1245 31.4001 24.181L31.4327 24.2327L32.7555 26.6265C32.7988 26.7049 32.8205 26.7953 32.818 26.8867C32.8155 26.9782 32.7889 27.067 32.7414 27.1425L32.7061 27.1919L28.9451 31.7558C28.8752 31.8332 28.7919 31.8946 28.6999 31.9366C28.6079 31.9785 28.5091 32.0001 28.4093 32C28.233 32 28.0632 31.933 27.9199 31.8004L27.8604 31.74L24.1126 27.1919C24.0562 27.1236 24.0191 27.0391 24.0056 26.9485C23.9922 26.858 24.003 26.7651 24.0367 26.681L24.0632 26.626L25.3917 24.2217L25.4199 24.1786C25.4401 24.1513 25.463 24.1266 25.4882 24.1048L25.5275 24.0742L25.5663 24.0503L25.5883 24.0393L25.6148 24.0273L25.6628 24.012L25.6765 24.0093C25.7003 24.0047 25.7244 24.0018 25.7485 24.0007L25.7638 24H31.0549Z" fill="url(#paint1_linear_283_819)"/>
</g>
<foreignObject x="21.1021" y="20.4999" width="19.0227" height="21"><div xmlns="http://www.w3.org/1999/xhtml" style="backdrop-filter:blur(2px);clip-path:url(#bgblur_0_283_819_clip_path);height:100%;width:100%"></div></foreignObject><g filter="url(#filter1_d_283_819)" data-figma-bg-blur-radius="4">
<path d="M33.9207 24.4999C34.0037 24.4999 34.0856 24.5182 34.1603 24.5535C34.235 24.5888 34.3006 24.64 34.3523 24.7035L34.393 24.7617L36.0465 27.4547C36.1006 27.543 36.1278 27.6446 36.1246 27.7475C36.1215 27.8504 36.0883 27.9503 36.0289 28.0353L35.9848 28.0908L31.2835 33.2253C31.1962 33.3123 31.092 33.3814 30.977 33.4286C30.862 33.4757 30.7385 33.5 30.6138 33.4999C30.3934 33.4999 30.1812 33.4245 30.002 33.2753L29.9276 33.2075L25.2429 28.0908C25.1724 28.0139 25.126 27.9189 25.1092 27.817C25.0924 27.7152 25.1059 27.6107 25.1481 27.5161L25.1811 27.4542L26.8417 24.7493L26.877 24.7008C26.9022 24.6702 26.9309 24.6423 26.9624 24.6179L27.0115 24.5834L27.06 24.5565L27.0876 24.5441L27.1206 24.5306L27.1807 24.5134L27.2424 24.5026L27.3069 24.4999H33.9207Z" fill="url(#paint2_linear_283_819)"/>
</g>
<foreignObject x="14.4886" y="18.5" width="21.7784" height="23"><div xmlns="http://www.w3.org/1999/xhtml" style="backdrop-filter:blur(2px);clip-path:url(#bgblur_1_283_819_clip_path);height:100%;width:100%"></div></foreignObject><g filter="url(#filter2_d_283_819)" data-figma-bg-blur-radius="4">
<path d="M29.5118 22.5C29.6155 22.5 29.7179 22.5223 29.8113 22.5654C29.9047 22.6085 29.9867 22.6712 30.0512 22.7488L30.1022 22.8199L32.169 26.1113C32.2367 26.2193 32.2706 26.3435 32.2667 26.4692C32.2628 26.595 32.2212 26.7171 32.147 26.821L32.0918 26.8888L26.2152 33.1642C26.1061 33.2706 25.9758 33.3551 25.8321 33.4127C25.6884 33.4704 25.534 33.5 25.3782 33.5C25.1026 33.5 24.8373 33.4078 24.6134 33.2254L24.5204 33.1425L18.6645 26.8888C18.5764 26.7948 18.5184 26.6787 18.4974 26.5542C18.4763 26.4297 18.4932 26.302 18.546 26.1864L18.5873 26.1107L20.6631 22.8047L20.7072 22.7455C20.7387 22.708 20.7745 22.674 20.8139 22.6441L20.8753 22.602L20.9359 22.5691L20.9703 22.5539L21.0117 22.5375L21.0868 22.5164L21.1639 22.5032L21.2445 22.5H29.5118ZM23.3899 25.0956C23.2333 25.006 23.0458 24.9794 22.8687 25.0217C22.6916 25.0641 22.5394 25.1718 22.4454 25.3214L22.032 25.9797L21.9907 26.056C21.9379 26.1722 21.9214 26.3004 21.943 26.4254C21.9646 26.5503 22.0235 26.6666 22.1126 26.7604L23.4905 28.2086L23.5525 28.2666C23.68 28.3708 23.843 28.427 24.0108 28.4246C24.1786 28.4222 24.3398 28.3613 24.4639 28.2534L24.5239 28.1941C24.633 28.0723 24.6918 27.9166 24.6893 27.7562C24.6867 27.5958 24.623 27.4419 24.5101 27.3232L23.6706 26.4415C23.5561 26.3212 23.5378 26.1387 23.6262 25.9981L23.6641 25.9303C23.7333 25.7832 23.7436 25.617 23.6931 25.4631C23.6425 25.3093 23.5347 25.1785 23.3899 25.0956Z" fill="url(#paint3_linear_283_819)" shape-rendering="crispEdges"/>
<path d="M21.2444 22.6503H29.512C29.5941 22.6504 29.6749 22.6682 29.7483 22.7021C29.7851 22.7191 29.8195 22.7396 29.8509 22.7636L29.9358 22.8447L29.9749 22.8984V22.8994L32.0423 26.1914C32.0942 26.2743 32.1195 26.3693 32.1165 26.4648C32.1135 26.5603 32.0819 26.6533 32.0247 26.7334L31.9788 26.79L26.1106 33.0566C26.0159 33.149 25.9023 33.2229 25.7767 33.2734C25.6508 33.3239 25.5151 33.3496 25.3782 33.3496L25.2884 33.3466C25.081 33.3292 24.8831 33.2504 24.7112 33.1113L24.6233 33.0332L18.7737 26.7861C18.7055 26.7133 18.6608 26.624 18.6448 26.5293C18.6328 26.4581 18.6376 26.3856 18.6575 26.3164L18.6829 26.249L18.719 26.1826L20.7903 22.8847L20.8235 22.8388C20.8473 22.811 20.8749 22.7861 20.9046 22.7636L20.9036 22.7626L20.9563 22.7275L21.0042 22.7021L21.0306 22.6914L21.0296 22.6904L21.0599 22.6787L21.1233 22.6611L21.179 22.6523L21.2444 22.6494V22.6503ZM23.4642 24.9658C23.2742 24.8571 23.048 24.8249 22.8343 24.8759C22.6205 24.927 22.4343 25.0575 22.3187 25.2412L21.9046 25.8994L21.8997 25.9082L21.8587 25.9843L21.8538 25.9941C21.7888 26.1375 21.7684 26.2964 21.7952 26.4511C21.822 26.6058 21.8952 26.7485 22.0042 26.8632V26.8642L23.3812 28.3115V28.3125L23.388 28.3183L23.4495 28.3759L23.4573 28.3828C23.6128 28.5099 23.8105 28.5771 24.013 28.5742C24.2154 28.5712 24.4103 28.4978 24.5618 28.3662L24.5628 28.3671L24.636 28.2939C24.7696 28.1446 24.8423 27.9526 24.8392 27.7539C24.836 27.5549 24.7568 27.365 24.6185 27.2197L23.7796 26.3378C23.7292 26.285 23.7102 26.2117 23.7259 26.1435L23.7532 26.0781L23.7571 26.0712L23.7952 26.0039L23.8001 25.9941C23.8855 25.8125 23.8978 25.6063 23.8353 25.416C23.7727 25.2259 23.6399 25.0664 23.4642 24.9658Z" stroke="url(#paint4_linear_283_819)" stroke-width="0.3" shape-rendering="crispEdges"/>
</g>
<defs>
<filter id="filter0_df_283_819" x="1.90735e-06" y="0" width="56.8182" height="56" filterUnits="userSpaceOnUse" color-interpolation-filters="sRGB">
<feFlood flood-opacity="0" result="BackgroundImageFix"/>
<feColorMatrix in="SourceAlpha" type="matrix" values="0 0 0 0 0 0 0 0 0 0 0 0 0 0 0 0 0 0 127 0" result="hardAlpha"/>
<feOffset dy="4"/>
<feGaussianBlur stdDeviation="2"/>
<feComposite in2="hardAlpha" operator="out"/>
<feColorMatrix type="matrix" values="0 0 0 0 0 0 0 0 0 0 0 0 0 0 0 0 0 0 0.25 0"/>
<feBlend mode="normal" in2="BackgroundImageFix" result="effect1_dropShadow_283_819"/>
<feBlend mode="normal" in="SourceGraphic" in2="effect1_dropShadow_283_819" result="shape"/>
<feGaussianBlur stdDeviation="12" result="effect2_foregroundBlur_283_819"/>
</filter>
<filter id="filter1_d_283_819" x="21.1021" y="20.4999" width="19.0227" height="21" filterUnits="userSpaceOnUse" color-interpolation-filters="sRGB">
<feFlood flood-opacity="0" result="BackgroundImageFix"/>
<feColorMatrix in="SourceAlpha" type="matrix" values="0 0 0 0 0 0 0 0 0 0 0 0 0 0 0 0 0 0 127 0" result="hardAlpha"/>
<feOffset dy="4"/>
<feGaussianBlur stdDeviation="2"/>
<feComposite in2="hardAlpha" operator="out"/>
<feColorMatrix type="matrix" values="0 0 0 0 0 0 0 0 0 0 0 0 0 0 0 0 0 0 0.25 0"/>
<feBlend mode="normal" in2="BackgroundImageFix" result="effect1_dropShadow_283_819"/>
<feBlend mode="normal" in="SourceGraphic" in2="effect1_dropShadow_283_819" result="shape"/>
</filter>
<clipPath id="bgblur_0_283_819_clip_path" transform="translate(-21.1021 -20.4999)"><path d="M33.9207 24.4999C34.0037 24.4999 34.0856 24.5182 34.1603 24.5535C34.235 24.5888 34.3006 24.64 34.3523 24.7035L34.393 24.7617L36.0465 27.4547C36.1006 27.543 36.1278 27.6446 36.1246 27.7475C36.1215 27.8504 36.0883 27.9503 36.0289 28.0353L35.9848 28.0908L31.2835 33.2253C31.1962 33.3123 31.092 33.3814 30.977 33.4286C30.862 33.4757 30.7385 33.5 30.6138 33.4999C30.3934 33.4999 30.1812 33.4245 30.002 33.2753L29.9276 33.2075L25.2429 28.0908C25.1724 28.0139 25.126 27.9189 25.1092 27.817C25.0924 27.7152 25.1059 27.6107 25.1481 27.5161L25.1811 27.4542L26.8417 24.7493L26.877 24.7008C26.9022 24.6702 26.9309 24.6423 26.9624 24.6179L27.0115 24.5834L27.06 24.5565L27.0876 24.5441L27.1206 24.5306L27.1807 24.5134L27.2424 24.5026L27.3069 24.4999H33.9207Z"/>
</clipPath><filter id="filter2_d_283_819" x="14.4886" y="18.5" width="21.7784" height="23" filterUnits="userSpaceOnUse" color-interpolation-filters="sRGB">
<feFlood flood-opacity="0" result="BackgroundImageFix"/>
<feColorMatrix in="SourceAlpha" type="matrix" values="0 0 0 0 0 0 0 0 0 0 0 0 0 0 0 0 0 0 127 0" result="hardAlpha"/>
<feOffset dy="4"/>
<feGaussianBlur stdDeviation="2"/>
<feComposite in2="hardAlpha" operator="out"/>
<feColorMatrix type="matrix" values="0 0 0 0 0 0 0 0 0 0 0 0 0 0 0 0 0 0 0.25 0"/>
<feBlend mode="normal" in2="BackgroundImageFix" result="effect1_dropShadow_283_819"/>
<feBlend mode="normal" in="SourceGraphic" in2="effect1_dropShadow_283_819" result="shape"/>
</filter>
<clipPath id="bgblur_1_283_819_clip_path" transform="translate(-14.4886 -18.5)"><path d="M29.5118 22.5C29.6155 22.5 29.7179 22.5223 29.8113 22.5654C29.9047 22.6085 29.9867 22.6712 30.0512 22.7488L30.1022 22.8199L32.169 26.1113C32.2367 26.2193 32.2706 26.3435 32.2667 26.4692C32.2628 26.595 32.2212 26.7171 32.147 26.821L32.0918 26.8888L26.2152 33.1642C26.1061 33.2706 25.9758 33.3551 25.8321 33.4127C25.6884 33.4704 25.534 33.5 25.3782 33.5C25.1026 33.5 24.8373 33.4078 24.6134 33.2254L24.5204 33.1425L18.6645 26.8888C18.5764 26.7948 18.5184 26.6787 18.4974 26.5542C18.4763 26.4297 18.4932 26.302 18.546 26.1864L18.5873 26.1107L20.6631 22.8047L20.7072 22.7455C20.7387 22.708 20.7745 22.674 20.8139 22.6441L20.8753 22.602L20.9359 22.5691L20.9703 22.5539L21.0117 22.5375L21.0868 22.5164L21.1639 22.5032L21.2445 22.5H29.5118ZM23.3899 25.0956C23.2333 25.006 23.0458 24.9794 22.8687 25.0217C22.6916 25.0641 22.5394 25.1718 22.4454 25.3214L22.032 25.9797L21.9907 26.056C21.9379 26.1722 21.9214 26.3004 21.943 26.4254C21.9646 26.5503 22.0235 26.6666 22.1126 26.7604L23.4905 28.2086L23.5525 28.2666C23.68 28.3708 23.843 28.427 24.0108 28.4246C24.1786 28.4222 24.3398 28.3613 24.4639 28.2534L24.5239 28.1941C24.633 28.0723 24.6918 27.9166 24.6893 27.7562C24.6867 27.5958 24.623 27.4419 24.5101 27.3232L23.6706 26.4415C23.5561 26.3212 23.5378 26.1387 23.6262 25.9981L23.6641 25.9303C23.7333 25.7832 23.7436 25.617 23.6931 25.4631C23.6425 25.3093 23.5347 25.1785 23.3899 25.0956Z"/>
</clipPath><linearGradient id="paint0_linear_283_819" x1="17.0322" y1="38.5" x2="85.6879" y2="19.042" gradientUnits="userSpaceOnUse">
<stop stop-color="#1050BF"/>
<stop offset="0.827359" stop-color="#232E3D"/>
</linearGradient>
<linearGradient id="paint1_linear_283_819" x1="25.8512" y1="23.4545" x2="30.4197" y2="28.7722" gradientUnits="userSpaceOnUse">
<stop stop-color="#40F4FF"/>
<stop offset="0.592359" stop-color="#067C84"/>
<stop offset="1" stop-color="#044549"/>
</linearGradient>
<linearGradient id="paint2_linear_283_819" x1="27.4162" y1="23.8863" x2="32.4477" y2="30.3937" gradientUnits="userSpaceOnUse">
<stop stop-color="white"/>
<stop offset="0.592359" stop-color="white"/>
<stop offset="1" stop-color="white"/>
</linearGradient>
<linearGradient id="paint3_linear_283_819" x1="16.4218" y1="34.6" x2="28.8802" y2="19.6732" gradientUnits="userSpaceOnUse">
<stop stop-color="white" stop-opacity="0.2"/>
<stop offset="1" stop-color="white" stop-opacity="0.5"/>
</linearGradient>
<linearGradient id="paint4_linear_283_819" x1="30.8891" y1="34.6" x2="21.5969" y2="20.6974" gradientUnits="userSpaceOnUse">
<stop stop-color="white" stop-opacity="0"/>
<stop offset="1" stop-color="white"/>
</linearGradient>
</defs>
</svg>
