<svg width="72" height="57" viewBox="3.76 0.46 72 56.76" fill="none" xmlns="http://www.w3.org/2000/svg">
<rect x="16.2526" y="17.4887" width="58" height="21" rx="10.5" fill="url(#paint0_linear_283_825)"/>
<g filter="url(#filter0_f_283_825)">
<path d="M28.7105 32.3455L27.0946 30.9543C26.9071 30.7929 26.6297 30.7929 26.4421 30.9543L24.8262 32.3455C24.5021 32.6246 24 32.3943 24 31.9666V24.5C24 24.2239 24.2239 24 24.5 24H26.7684H29.0367C29.3129 24 29.5367 24.2239 29.5367 24.5V31.9666C29.5367 32.3943 29.0346 32.6246 28.7105 32.3455Z" fill="url(#paint1_linear_283_825)"/>
</g>
<g filter="url(#filter1_di_283_825)">
<path d="M24.8807 33.5836L24.3735 32.1812C24.3404 32.0898 24.246 32.0356 24.15 32.0528L22.6766 32.3165C22.5089 32.3466 22.3828 32.1675 22.4682 32.0203L24.7234 28.131C24.7788 28.0355 24.9013 28.0026 24.9971 28.0577L26.2109 28.7555L27.4247 29.4532C27.5205 29.5083 27.5532 29.6304 27.4978 29.7259L25.2426 33.6152C25.1572 33.7624 24.9385 33.7433 24.8807 33.5836Z" fill="url(#paint2_linear_283_825)" shape-rendering="crispEdges"/>
</g>
<g filter="url(#filter2_di_283_825)">
<path d="M31.1741 31.8485L29.7007 31.5847C29.6047 31.5675 29.5103 31.6218 29.4772 31.7132L28.97 33.1156C28.9122 33.2753 28.6934 33.2944 28.6081 33.1472L26.3529 29.2579C26.2975 29.1624 26.3302 29.0403 26.426 28.9852L27.6398 28.2874L28.8536 27.5897C28.9494 27.5346 29.0719 27.5675 29.1273 27.663L31.3825 31.5523C31.4679 31.6995 31.3418 31.8786 31.1741 31.8485Z" fill="url(#paint3_linear_283_825)" shape-rendering="crispEdges"/>
</g>
<foreignObject x="2.26169" y="2.98999" width="48.9906" height="48.9518"><div xmlns="http://www.w3.org/1999/xhtml" style="backdrop-filter:blur(2px);clip-path:url(#bgblur_0_283_825_clip_path);height:100%;width:100%"></div></foreignObject><g filter="url(#filter3_d_283_825)" data-figma-bg-blur-radius="4">
<path d="M30.5335 25.0361C30.4203 24.9516 30.3532 24.8168 30.3532 24.6755C30.3532 23.7246 29.5849 22.9414 28.6592 22.8878C28.4549 22.8759 28.2597 22.7793 28.1272 22.6233C27.7943 22.2317 27.2977 21.99 26.757 21.99C26.2162 21.99 25.7196 22.2317 25.3867 22.6234C25.2542 22.7793 25.0592 22.876 24.8549 22.8877C23.9277 22.941 23.1608 23.7244 23.1608 24.6755C23.1608 24.8168 23.0936 24.9516 22.9805 25.0361C22.5387 25.3661 22.2617 25.8911 22.2617 26.4659C22.2617 27.0407 22.5387 27.5657 22.9805 27.8957C23.0936 27.9802 23.1609 28.1151 23.1608 28.2563C23.1608 29.2077 23.928 29.9894 24.8556 30.0435C25.0595 30.0554 25.254 30.1521 25.3862 30.3078C25.7191 30.6998 26.2159 30.9418 26.757 30.9418C27.298 30.9418 27.7948 30.6999 28.1277 30.3079C28.2599 30.1522 28.4545 30.0555 28.6584 30.0435C29.5845 29.989 30.3532 29.2074 30.3532 28.2563C30.3532 28.115 30.4203 27.9802 30.5335 27.8957C30.9752 27.5657 31.2523 27.0407 31.2523 26.4659C31.2523 25.8911 30.9752 25.3661 30.5335 25.0361Z" fill="white"/>
<path d="M30.5335 25.0361C30.4203 24.9516 30.3532 24.8168 30.3532 24.6755C30.3532 23.7246 29.5849 22.9414 28.6592 22.8878C28.4549 22.8759 28.2597 22.7793 28.1272 22.6233C27.7943 22.2317 27.2977 21.99 26.757 21.99C26.2162 21.99 25.7196 22.2317 25.3867 22.6234C25.2542 22.7793 25.0592 22.876 24.8549 22.8877C23.9277 22.941 23.1608 23.7244 23.1608 24.6755C23.1608 24.8168 23.0936 24.9516 22.9805 25.0361C22.5387 25.3661 22.2617 25.8911 22.2617 26.4659C22.2617 27.0407 22.5387 27.5657 22.9805 27.8957C23.0936 27.9802 23.1609 28.1151 23.1608 28.2563C23.1608 29.2077 23.928 29.9894 24.8556 30.0435C25.0595 30.0554 25.254 30.1521 25.3862 30.3078C25.7191 30.6998 26.2159 30.9418 26.757 30.9418C27.298 30.9418 27.7948 30.6999 28.1277 30.3079C28.2599 30.1522 28.4545 30.0555 28.6584 30.0435C29.5845 29.989 30.3532 29.2074 30.3532 28.2563C30.3532 28.115 30.4203 27.9802 30.5335 27.8957C30.9752 27.5657 31.2523 27.0407 31.2523 26.4659C31.2523 25.8911 30.9752 25.3661 30.5335 25.0361Z" fill="white"/>
<path d="M26.7568 22.1404C27.2524 22.1404 27.7075 22.3615 28.0127 22.7205C28.1719 22.9078 28.4054 23.0236 28.6504 23.0378C29.4988 23.087 30.2031 23.8061 30.2031 24.6755C30.2031 24.8636 30.2923 25.043 30.4433 25.156C30.8483 25.4586 31.1024 25.9397 31.1025 26.4656C31.1025 26.9916 30.8484 27.4725 30.4433 27.7751C30.2921 27.8882 30.2031 28.0684 30.2031 28.2566C30.2029 29.1259 29.4984 29.8433 28.6494 29.8933C28.4353 29.906 28.2304 29.9966 28.0761 30.1443L28.0136 30.2107C27.7085 30.57 27.2527 30.7917 26.7568 30.7917C26.2611 30.7917 25.8061 30.5699 25.501 30.2107L25.4375 30.1443C25.2832 29.9966 25.0783 29.9058 24.8642 29.8933C24.0671 29.8467 23.3998 29.2133 23.3193 28.4177L23.3105 28.2566C23.3108 28.0681 23.2214 27.8881 23.0703 27.7751L22.9258 27.6541C22.6516 27.3952 22.4702 27.0454 22.4238 26.6609L22.4121 26.4656C22.4122 26.0055 22.606 25.58 22.9258 25.2781L23.0703 25.156C23.2025 25.0572 23.2874 24.9077 23.3066 24.7458L23.3105 24.6755C23.3105 23.8601 23.9286 23.1769 24.706 23.0544L24.8633 23.0378C25.1083 23.0238 25.3418 22.9077 25.501 22.7205C25.8061 22.3615 26.2613 22.1404 26.7568 22.1404Z" stroke="url(#paint4_linear_283_825)" stroke-width="0.3"/>
</g>
<path d="M26.6258 25.0381C26.6708 24.9001 26.866 24.9001 26.911 25.0381L27.1786 25.8581C27.1987 25.9198 27.2563 25.9615 27.3212 25.9615H28.1857C28.3312 25.9615 28.3915 26.1478 28.2737 26.2331L27.5753 26.7382C27.5225 26.7764 27.5004 26.8444 27.5206 26.9063L27.7876 27.7245C27.8327 27.8626 27.6748 27.9777 27.5571 27.8926L26.8563 27.3856C26.8038 27.3476 26.7329 27.3476 26.6805 27.3856L25.9796 27.8926C25.862 27.9777 25.7041 27.8626 25.7491 27.7245L26.0161 26.9063C26.0363 26.8444 26.0142 26.7764 25.9614 26.7382L25.2631 26.2331C25.1453 26.1478 25.2056 25.9615 25.351 25.9615H26.2156C26.2805 25.9615 26.3381 25.9198 26.3582 25.8581L26.6258 25.0381Z" fill="url(#paint5_linear_283_825)"/>
<defs>
<filter id="filter0_f_283_825" x="0" y="0" width="53.5367" height="56.4676" filterUnits="userSpaceOnUse" color-interpolation-filters="sRGB">
<feFlood flood-opacity="0" result="BackgroundImageFix"/>
<feBlend mode="normal" in="SourceGraphic" in2="BackgroundImageFix" result="shape"/>
<feGaussianBlur stdDeviation="12" result="effect1_foregroundBlur_283_825"/>
</filter>
<filter id="filter1_di_283_825" x="20.9407" y="27.531" width="8.08405" height="10.1843" filterUnits="userSpaceOnUse" color-interpolation-filters="sRGB">
<feFlood flood-opacity="0" result="BackgroundImageFix"/>
<feColorMatrix in="SourceAlpha" type="matrix" values="0 0 0 0 0 0 0 0 0 0 0 0 0 0 0 0 0 0 127 0" result="hardAlpha"/>
<feOffset dy="1"/>
<feGaussianBlur stdDeviation="0.75"/>
<feComposite in2="hardAlpha" operator="out"/>
<feColorMatrix type="matrix" values="0 0 0 0 0 0 0 0 0 0 0 0 0 0 0 0 0 0 0.25 0"/>
<feBlend mode="normal" in2="BackgroundImageFix" result="effect1_dropShadow_283_825"/>
<feBlend mode="normal" in="SourceGraphic" in2="effect1_dropShadow_283_825" result="shape"/>
<feColorMatrix in="SourceAlpha" type="matrix" values="0 0 0 0 0 0 0 0 0 0 0 0 0 0 0 0 0 0 127 0" result="hardAlpha"/>
<feOffset dy="8"/>
<feGaussianBlur stdDeviation="2"/>
<feComposite in2="hardAlpha" operator="arithmetic" k2="-1" k3="1"/>
<feColorMatrix type="matrix" values="0 0 0 0 1 0 0 0 0 1 0 0 0 0 1 0 0 0 0.25 0"/>
<feBlend mode="normal" in2="shape" result="effect2_innerShadow_283_825"/>
</filter>
<filter id="filter2_di_283_825" x="24.8259" y="27.063" width="8.08405" height="10.1843" filterUnits="userSpaceOnUse" color-interpolation-filters="sRGB">
<feFlood flood-opacity="0" result="BackgroundImageFix"/>
<feColorMatrix in="SourceAlpha" type="matrix" values="0 0 0 0 0 0 0 0 0 0 0 0 0 0 0 0 0 0 127 0" result="hardAlpha"/>
<feOffset dy="1"/>
<feGaussianBlur stdDeviation="0.75"/>
<feComposite in2="hardAlpha" operator="out"/>
<feColorMatrix type="matrix" values="0 0 0 0 0 0 0 0 0 0 0 0 0 0 0 0 0 0 0.25 0"/>
<feBlend mode="normal" in2="BackgroundImageFix" result="effect1_dropShadow_283_825"/>
<feBlend mode="normal" in="SourceGraphic" in2="effect1_dropShadow_283_825" result="shape"/>
<feColorMatrix in="SourceAlpha" type="matrix" values="0 0 0 0 0 0 0 0 0 0 0 0 0 0 0 0 0 0 127 0" result="hardAlpha"/>
<feOffset dy="8"/>
<feGaussianBlur stdDeviation="2"/>
<feComposite in2="hardAlpha" operator="arithmetic" k2="-1" k3="1"/>
<feColorMatrix type="matrix" values="0 0 0 0 1 0 0 0 0 1 0 0 0 0 1 0 0 0 0.25 0"/>
<feBlend mode="normal" in2="shape" result="effect2_innerShadow_283_825"/>
</filter>
<filter id="filter3_d_283_825" x="2.26169" y="2.98999" width="48.9906" height="48.9518" filterUnits="userSpaceOnUse" color-interpolation-filters="sRGB">
<feFlood flood-opacity="0" result="BackgroundImageFix"/>
<feColorMatrix in="SourceAlpha" type="matrix" values="0 0 0 0 0 0 0 0 0 0 0 0 0 0 0 0 0 0 127 0" result="hardAlpha"/>
<feOffset dy="1"/>
<feGaussianBlur stdDeviation="10"/>
<feComposite in2="hardAlpha" operator="out"/>
<feColorMatrix type="matrix" values="0 0 0 0 0.862745 0 0 0 0 0.14902 0 0 0 0 0.14902 0 0 0 0.2 0"/>
<feBlend mode="normal" in2="BackgroundImageFix" result="effect1_dropShadow_283_825"/>
<feBlend mode="normal" in="SourceGraphic" in2="effect1_dropShadow_283_825" result="shape"/>
</filter>
<clipPath id="bgblur_0_283_825_clip_path" transform="translate(-2.26169 -2.98999)"><path d="M30.5335 25.0361C30.4203 24.9516 30.3532 24.8168 30.3532 24.6755C30.3532 23.7246 29.5849 22.9414 28.6592 22.8878C28.4549 22.8759 28.2597 22.7793 28.1272 22.6233C27.7943 22.2317 27.2977 21.99 26.757 21.99C26.2162 21.99 25.7196 22.2317 25.3867 22.6234C25.2542 22.7793 25.0592 22.876 24.8549 22.8877C23.9277 22.941 23.1608 23.7244 23.1608 24.6755C23.1608 24.8168 23.0936 24.9516 22.9805 25.0361C22.5387 25.3661 22.2617 25.8911 22.2617 26.4659C22.2617 27.0407 22.5387 27.5657 22.9805 27.8957C23.0936 27.9802 23.1609 28.1151 23.1608 28.2563C23.1608 29.2077 23.928 29.9894 24.8556 30.0435C25.0595 30.0554 25.254 30.1521 25.3862 30.3078C25.7191 30.6998 26.2159 30.9418 26.757 30.9418C27.298 30.9418 27.7948 30.6999 28.1277 30.3079C28.2599 30.1522 28.4545 30.0555 28.6584 30.0435C29.5845 29.989 30.3532 29.2074 30.3532 28.2563C30.3532 28.115 30.4203 27.9802 30.5335 27.8957C30.9752 27.5657 31.2523 27.0407 31.2523 26.4659C31.2523 25.8911 30.9752 25.3661 30.5335 25.0361Z"/>
<path d="M30.5335 25.0361C30.4203 24.9516 30.3532 24.8168 30.3532 24.6755C30.3532 23.7246 29.5849 22.9414 28.6592 22.8878C28.4549 22.8759 28.2597 22.7793 28.1272 22.6233C27.7943 22.2317 27.2977 21.99 26.757 21.99C26.2162 21.99 25.7196 22.2317 25.3867 22.6234C25.2542 22.7793 25.0592 22.876 24.8549 22.8877C23.9277 22.941 23.1608 23.7244 23.1608 24.6755C23.1608 24.8168 23.0936 24.9516 22.9805 25.0361C22.5387 25.3661 22.2617 25.8911 22.2617 26.4659C22.2617 27.0407 22.5387 27.5657 22.9805 27.8957C23.0936 27.9802 23.1609 28.1151 23.1608 28.2563C23.1608 29.2077 23.928 29.9894 24.8556 30.0435C25.0595 30.0554 25.254 30.1521 25.3862 30.3078C25.7191 30.6998 26.2159 30.9418 26.757 30.9418C27.298 30.9418 27.7948 30.6999 28.1277 30.3079C28.2599 30.1522 28.4545 30.0555 28.6584 30.0435C29.5845 29.989 30.3532 29.2074 30.3532 28.2563C30.3532 28.115 30.4203 27.9802 30.5335 27.8957C30.9752 27.5657 31.2523 27.0407 31.2523 26.4659C31.2523 25.8911 30.9752 25.3661 30.5335 25.0361Z"/>
</clipPath><linearGradient id="paint0_linear_283_825" x1="22.0733" y1="17.4887" x2="99.5132" y2="39.33" gradientUnits="userSpaceOnUse">
<stop stop-color="#490101"/>
<stop offset="1" stop-color="#FF0000"/>
</linearGradient>
<linearGradient id="paint1_linear_283_825" x1="27.2179" y1="24.3866" x2="26.2696" y2="32.8196" gradientUnits="userSpaceOnUse">
<stop stop-color="#FFE353"/>
<stop offset="1" stop-color="#8900F5"/>
</linearGradient>
<linearGradient id="paint2_linear_283_825" x1="21.5791" y1="32.5967" x2="27.6391" y2="32.5129" gradientUnits="userSpaceOnUse">
<stop stop-color="white" stop-opacity="0.2"/>
<stop offset="1" stop-color="white" stop-opacity="0.5"/>
</linearGradient>
<linearGradient id="paint3_linear_283_825" x1="28.6649" y1="34.2021" x2="31.6032" y2="28.9242" gradientUnits="userSpaceOnUse">
<stop stop-color="white" stop-opacity="0.2"/>
<stop offset="1" stop-color="white" stop-opacity="0.5"/>
</linearGradient>
<linearGradient id="paint4_linear_283_825" x1="30.7524" y1="19.99" x2="21.2524" y2="26.49" gradientUnits="userSpaceOnUse">
<stop stop-color="#721616" stop-opacity="0.1"/>
<stop offset="1" stop-color="#DC2626"/>
</linearGradient>
<linearGradient id="paint5_linear_283_825" x1="26.7684" y1="24.6011" x2="26.7684" y2="28.1628" gradientUnits="userSpaceOnUse">
<stop stop-color="#FF0000"/>
<stop offset="1" stop-color="#721616"/>
</linearGradient>
</defs>
</svg>
