<svg width="72" height="57" viewBox="12.28 13.34 72 56.76" fill="none" xmlns="http://www.w3.org/2000/svg">
<rect x="24.7656" y="30.3701" width="58" height="21" rx="10.5" fill="url(#paint0_linear_283_833)"/>
<g filter="url(#filter0_f_283_833)">
<path d="M34.3358 38.7453C34.5538 38.2333 34.8708 37.7736 35.2668 37.3952L35.5936 37.0823C35.6047 37.072 35.6181 37.0646 35.6325 37.0609C35.647 37.0573 35.662 37.0573 35.6765 37.0611C35.6909 37.065 35.7042 37.0724 35.7152 37.0828C35.7262 37.0933 35.7346 37.1064 35.7396 37.121L35.8856 37.5581C35.9766 37.8324 36.1439 38.1125 36.3809 38.3879C36.3966 38.4055 36.4146 38.4102 36.4269 38.4113C36.4393 38.4125 36.4584 38.4102 36.4752 38.3938C36.4909 38.3797 36.4988 38.3586 36.4977 38.3375C36.4561 37.632 36.6583 36.8362 37.1007 35.9701C37.4668 35.2505 37.9756 34.6891 38.6112 34.2977L39.0751 34.0129C39.1357 33.9754 39.2132 34.0246 39.2098 34.0984L39.1851 34.661C39.1683 35.0454 39.2109 35.3853 39.312 35.6677C39.4355 36.0135 39.613 36.3346 39.8398 36.6229C39.9977 36.8233 40.1767 37.0045 40.3733 37.1632C40.8469 37.5431 41.232 38.0299 41.4997 38.5871C41.7668 39.1492 41.9059 39.7681 41.9062 40.3955C41.9062 40.9487 41.8018 41.4843 41.5952 41.9894C41.3956 42.4757 41.1077 42.9171 40.7473 43.2891C40.3834 43.6642 39.9611 43.9595 39.4906 44.1646C39.0032 44.3779 38.4866 44.4857 37.9531 44.4857C37.4197 44.4857 36.9031 44.3779 36.4157 44.1658C35.9463 43.9619 35.5194 43.6645 35.159 43.2903C34.7951 42.9153 34.5099 42.4769 34.3111 41.9906C34.1048 41.4868 33.9989 40.9445 34 40.3967C34 39.8247 34.1123 39.2692 34.3358 38.7453Z" fill="url(#paint1_linear_283_833)"/>
</g>
<foreignObject x="24.7656" y="31.446" width="19.1875" height="21.7626"><div xmlns="http://www.w3.org/1999/xhtml" style="backdrop-filter:blur(2px);clip-path:url(#bgblur_0_283_833_clip_path);height:100%;width:100%"></div></foreignObject><g filter="url(#filter1_d_283_833)" data-figma-bg-blur-radius="4">
<path d="M31.0709 39.8641C31.2691 39.3873 31.5572 38.9594 31.9173 38.6071L32.2144 38.3158C32.2244 38.3061 32.2366 38.2993 32.2497 38.2959C32.2629 38.2924 32.2766 38.2925 32.2897 38.2961C32.3028 38.2996 32.3149 38.3066 32.3249 38.3163C32.3349 38.326 32.3425 38.3382 32.3471 38.3518L32.4798 38.7588C32.5625 39.0141 32.7146 39.2749 32.93 39.5313C32.9443 39.5477 32.9607 39.552 32.9719 39.5531C32.9831 39.5542 33.0005 39.552 33.0158 39.5368C33.0301 39.5237 33.0372 39.504 33.0362 39.4844C32.9985 38.8275 33.1822 38.0866 33.5845 37.2803C33.9173 36.6103 34.3798 36.0876 34.9577 35.7232L35.3793 35.458C35.4344 35.4231 35.5049 35.4689 35.5018 35.5377L35.4794 36.0614C35.464 36.4193 35.5028 36.7358 35.5947 36.9987C35.707 37.3206 35.8683 37.6196 36.0746 37.888C36.2181 38.0746 36.3808 38.2433 36.5595 38.3911C36.9901 38.7448 37.3401 39.198 37.5835 39.7168C37.8263 40.2401 37.9528 40.8163 37.9531 41.4005C37.9531 41.9155 37.8582 42.4141 37.6703 42.8844C37.4889 43.3372 37.2272 43.7482 36.8995 44.0945C36.5687 44.4437 36.1848 44.7187 35.7571 44.9096C35.314 45.1082 34.8443 45.2086 34.3594 45.2086C33.8744 45.2086 33.4048 45.1082 32.9617 44.9107C32.535 44.7209 32.1469 44.444 31.8193 44.0956C31.4885 43.7465 31.2291 43.3384 31.0484 42.8855C30.8609 42.4165 30.7646 41.9116 30.7656 41.4016C30.7656 40.8691 30.8677 40.3519 31.0709 39.8641Z" fill="url(#paint2_linear_283_833)"/>
</g>
<foreignObject x="29.6406" y="32.5314" width="16.625" height="23.2089"><div xmlns="http://www.w3.org/1999/xhtml" style="backdrop-filter:blur(2px);clip-path:url(#bgblur_1_283_833_clip_path);height:100%;width:100%"></div></foreignObject><g filter="url(#filter2_d_283_833)" data-figma-bg-blur-radius="4">
<path d="M41.8993 41.604C41.6615 41.0566 41.3157 40.5652 40.8837 40.1607L40.5271 39.8262C40.515 39.8152 40.5005 39.8073 40.4847 39.8034C40.4689 39.7995 40.4525 39.7995 40.4368 39.8036C40.421 39.8077 40.4065 39.8157 40.3945 39.8268C40.3825 39.838 40.3734 39.852 40.3679 39.8676L40.2086 40.3349C40.1094 40.628 39.9268 40.9275 39.6683 41.2219C39.6512 41.2407 39.6316 41.2457 39.6181 41.2469C39.6046 41.2482 39.5838 41.2457 39.5654 41.2281C39.5483 41.2131 39.5397 41.1905 39.5409 41.168C39.5862 40.4138 39.3657 39.5631 38.883 38.6373C38.4836 37.8681 37.9286 37.268 37.2352 36.8496L36.7292 36.5451C36.663 36.505 36.5785 36.5577 36.5822 36.6366L36.6091 37.2379C36.6275 37.6488 36.581 38.0122 36.4707 38.3141C36.3359 38.6837 36.1424 39.0269 35.8949 39.3351C35.7227 39.5493 35.5275 39.743 35.3129 39.9127C34.7963 40.3188 34.3762 40.8392 34.0841 41.4348C33.7928 42.0357 33.641 42.6972 33.6406 43.3679C33.6406 43.9593 33.7546 44.5318 33.98 45.0718C34.1977 45.5916 34.5118 46.0634 34.905 46.4611C35.3019 46.862 35.7626 47.1777 36.2759 47.397C36.8076 47.625 37.3712 47.7402 37.9531 47.7402C38.5351 47.7402 39.0986 47.625 39.6303 47.3982C40.1424 47.1803 40.6081 46.8624 41.0013 46.4624C41.3982 46.0615 41.7094 45.5929 41.9263 45.073C42.1513 44.5345 42.2668 43.9548 42.2656 43.3692C42.2656 42.7578 42.1431 42.164 41.8993 41.604Z" fill="url(#paint3_linear_283_833)" shape-rendering="crispEdges"/>
<path d="M36.7363 36.7237L37.1572 36.9776C37.8255 37.3809 38.3625 37.96 38.75 38.7062V38.7071C39.2245 39.6174 39.4348 40.4407 39.3916 41.1593V41.1603C39.3883 41.2227 39.4108 41.2884 39.4619 41.336V41.337C39.5195 41.3918 39.5874 41.4007 39.6318 41.3966C39.6698 41.3931 39.7296 41.3778 39.7793 41.3233L39.7812 41.3204C39.9821 41.0916 40.1416 40.8566 40.2539 40.6202L40.3506 40.3829L40.4834 39.9903L40.7812 40.2696V40.2706C41.1981 40.6609 41.532 41.1355 41.7617 41.6642C41.9971 42.205 42.1152 42.7784 42.1152 43.3692L42.1104 43.5812C42.0868 44.0743 41.9782 44.5598 41.7881 45.0148V45.0157C41.5786 45.5178 41.2777 45.9696 40.8945 46.3566V46.3575C40.515 46.7436 40.0651 47.0497 39.5713 47.2599C39.0582 47.4787 38.5149 47.5899 37.9531 47.59C37.4614 47.59 36.9838 47.5048 36.5283 47.336L36.335 47.2589C35.84 47.0475 35.3954 46.743 35.0117 46.3556C34.6321 45.9717 34.3285 45.5161 34.1182 45.0138C33.9006 44.4925 33.7911 43.9398 33.791 43.3683C33.7914 42.7204 33.9376 42.0813 34.2188 41.5011C34.501 40.9255 34.9066 40.4224 35.4053 40.0304H35.4062C35.6296 39.8538 35.8325 39.6517 36.0117 39.4288C36.2694 39.1079 36.4709 38.7503 36.6113 38.3653C36.73 38.0404 36.7778 37.6567 36.7588 37.2316L36.7363 36.7237Z" stroke="url(#paint4_linear_283_833)" stroke-width="0.3" shape-rendering="crispEdges"/>
</g>
<defs>
<filter id="filter0_f_283_833" x="0" y="0" width="75.9062" height="78.4857" filterUnits="userSpaceOnUse" color-interpolation-filters="sRGB">
<feFlood flood-opacity="0" result="BackgroundImageFix"/>
<feBlend mode="normal" in="SourceGraphic" in2="BackgroundImageFix" result="shape"/>
<feGaussianBlur stdDeviation="17" result="effect1_foregroundBlur_283_833"/>
</filter>
<filter id="filter1_d_283_833" x="24.7656" y="31.446" width="19.1875" height="21.7626" filterUnits="userSpaceOnUse" color-interpolation-filters="sRGB">
<feFlood flood-opacity="0" result="BackgroundImageFix"/>
<feColorMatrix in="SourceAlpha" type="matrix" values="0 0 0 0 0 0 0 0 0 0 0 0 0 0 0 0 0 0 127 0" result="hardAlpha"/>
<feOffset dy="2"/>
<feGaussianBlur stdDeviation="3"/>
<feComposite in2="hardAlpha" operator="out"/>
<feColorMatrix type="matrix" values="0 0 0 0 0 0 0 0 0 0 0 0 0 0 0 0 0 0 0.25 0"/>
<feBlend mode="normal" in2="BackgroundImageFix" result="effect1_dropShadow_283_833"/>
<feBlend mode="normal" in="SourceGraphic" in2="effect1_dropShadow_283_833" result="shape"/>
</filter>
<clipPath id="bgblur_0_283_833_clip_path" transform="translate(-24.7656 -31.446)"><path d="M31.0709 39.8641C31.2691 39.3873 31.5572 38.9594 31.9173 38.6071L32.2144 38.3158C32.2244 38.3061 32.2366 38.2993 32.2497 38.2959C32.2629 38.2924 32.2766 38.2925 32.2897 38.2961C32.3028 38.2996 32.3149 38.3066 32.3249 38.3163C32.3349 38.326 32.3425 38.3382 32.3471 38.3518L32.4798 38.7588C32.5625 39.0141 32.7146 39.2749 32.93 39.5313C32.9443 39.5477 32.9607 39.552 32.9719 39.5531C32.9831 39.5542 33.0005 39.552 33.0158 39.5368C33.0301 39.5237 33.0372 39.504 33.0362 39.4844C32.9985 38.8275 33.1822 38.0866 33.5845 37.2803C33.9173 36.6103 34.3798 36.0876 34.9577 35.7232L35.3793 35.458C35.4344 35.4231 35.5049 35.4689 35.5018 35.5377L35.4794 36.0614C35.464 36.4193 35.5028 36.7358 35.5947 36.9987C35.707 37.3206 35.8683 37.6196 36.0746 37.888C36.2181 38.0746 36.3808 38.2433 36.5595 38.3911C36.9901 38.7448 37.3401 39.198 37.5835 39.7168C37.8263 40.2401 37.9528 40.8163 37.9531 41.4005C37.9531 41.9155 37.8582 42.4141 37.6703 42.8844C37.4889 43.3372 37.2272 43.7482 36.8995 44.0945C36.5687 44.4437 36.1848 44.7187 35.7571 44.9096C35.314 45.1082 34.8443 45.2086 34.3594 45.2086C33.8744 45.2086 33.4048 45.1082 32.9617 44.9107C32.535 44.7209 32.1469 44.444 31.8193 44.0956C31.4885 43.7465 31.2291 43.3384 31.0484 42.8855C30.8609 42.4165 30.7646 41.9116 30.7656 41.4016C30.7656 40.8691 30.8677 40.3519 31.0709 39.8641Z"/>
</clipPath><filter id="filter2_d_283_833" x="29.6406" y="32.5314" width="16.625" height="23.2089" filterUnits="userSpaceOnUse" color-interpolation-filters="sRGB">
<feFlood flood-opacity="0" result="BackgroundImageFix"/>
<feColorMatrix in="SourceAlpha" type="matrix" values="0 0 0 0 0 0 0 0 0 0 0 0 0 0 0 0 0 0 127 0" result="hardAlpha"/>
<feOffset dy="4"/>
<feGaussianBlur stdDeviation="2"/>
<feComposite in2="hardAlpha" operator="out"/>
<feColorMatrix type="matrix" values="0 0 0 0 1 0 0 0 0 1 0 0 0 0 1 0 0 0 0.25 0"/>
<feBlend mode="normal" in2="BackgroundImageFix" result="effect1_dropShadow_283_833"/>
<feBlend mode="normal" in="SourceGraphic" in2="effect1_dropShadow_283_833" result="shape"/>
</filter>
<clipPath id="bgblur_1_283_833_clip_path" transform="translate(-29.6406 -32.5314)"><path d="M41.8993 41.604C41.6615 41.0566 41.3157 40.5652 40.8837 40.1607L40.5271 39.8262C40.515 39.8152 40.5005 39.8073 40.4847 39.8034C40.4689 39.7995 40.4525 39.7995 40.4368 39.8036C40.421 39.8077 40.4065 39.8157 40.3945 39.8268C40.3825 39.838 40.3734 39.852 40.3679 39.8676L40.2086 40.3349C40.1094 40.628 39.9268 40.9275 39.6683 41.2219C39.6512 41.2407 39.6316 41.2457 39.6181 41.2469C39.6046 41.2482 39.5838 41.2457 39.5654 41.2281C39.5483 41.2131 39.5397 41.1905 39.5409 41.168C39.5862 40.4138 39.3657 39.5631 38.883 38.6373C38.4836 37.8681 37.9286 37.268 37.2352 36.8496L36.7292 36.5451C36.663 36.505 36.5785 36.5577 36.5822 36.6366L36.6091 37.2379C36.6275 37.6488 36.581 38.0122 36.4707 38.3141C36.3359 38.6837 36.1424 39.0269 35.8949 39.3351C35.7227 39.5493 35.5275 39.743 35.3129 39.9127C34.7963 40.3188 34.3762 40.8392 34.0841 41.4348C33.7928 42.0357 33.641 42.6972 33.6406 43.3679C33.6406 43.9593 33.7546 44.5318 33.98 45.0718C34.1977 45.5916 34.5118 46.0634 34.905 46.4611C35.3019 46.862 35.7626 47.1777 36.2759 47.397C36.8076 47.625 37.3712 47.7402 37.9531 47.7402C38.5351 47.7402 39.0986 47.625 39.6303 47.3982C40.1424 47.1803 40.6081 46.8624 41.0013 46.4624C41.3982 46.0615 41.7094 45.5929 41.9263 45.073C42.1513 44.5345 42.2668 43.9548 42.2656 43.3692C42.2656 42.7578 42.1431 42.164 41.8993 41.604Z"/>
</clipPath><linearGradient id="paint0_linear_283_833" x1="24.7656" y1="29.457" x2="102.048" y2="58.274" gradientUnits="userSpaceOnUse">
<stop offset="0.0195262"/>
<stop offset="0.646381" stop-color="#FFC100"/>
<stop offset="1" stop-color="#FCD34F"/>
</linearGradient>
<linearGradient id="paint1_linear_283_833" x1="37.9531" y1="34" x2="37.9531" y2="44.4857" gradientUnits="userSpaceOnUse">
<stop stop-color="#FF0000"/>
<stop offset="1" stop-color="#721616"/>
</linearGradient>
<linearGradient id="paint2_linear_283_833" x1="34.3594" y1="35.446" x2="34.3594" y2="45.2086" gradientUnits="userSpaceOnUse">
<stop stop-color="white"/>
<stop offset="1" stop-color="#FCD34F"/>
</linearGradient>
<linearGradient id="paint3_linear_283_833" x1="32.3469" y1="48.8611" x2="44.6666" y2="39.7935" gradientUnits="userSpaceOnUse">
<stop stop-color="white" stop-opacity="0.2"/>
<stop offset="1" stop-color="white" stop-opacity="0.5"/>
</linearGradient>
<linearGradient id="paint4_linear_283_833" x1="41.4031" y1="48.8611" x2="31.1918" y2="39.4759" gradientUnits="userSpaceOnUse">
<stop stop-color="white" stop-opacity="0"/>
<stop offset="1" stop-color="white"/>
</linearGradient>
</defs>
</svg>
